<svg width="120.864" height="34.753" viewBox="0 0 120.864 34.753" xmlns="http://www.w3.org/2000/svg"><g id="svgGroup" stroke-linecap="round" fill-rule="evenodd" font-size="9pt" stroke="#000" stroke-width="0.25mm" fill="#000" style="stroke:#000;stroke-width:0.25mm;fill:#000"><path d="M 86.64 1.728 L 85.248 5.568 Q 83.76 4.848 82.2 4.416 A 11.047 11.047 0 0 0 80.729 4.121 Q 79.716 3.984 78.528 3.984 A 10.163 10.163 0 0 0 74.734 4.683 A 9.591 9.591 0 0 0 73.032 5.568 Q 70.608 7.152 69.216 10.128 Q 67.933 12.872 67.832 16.676 A 24.765 24.765 0 0 0 67.824 17.328 A 20.094 20.094 0 0 0 68.12 20.859 A 14.846 14.846 0 0 0 69.192 24.384 A 12.325 12.325 0 0 0 70.913 27.182 A 10.283 10.283 0 0 0 72.984 29.088 Q 75.408 30.768 78.528 30.768 A 16.183 16.183 0 0 0 80.434 30.662 Q 81.4 30.547 82.231 30.309 A 9.254 9.254 0 0 0 82.608 30.192 Q 84.336 29.616 85.968 28.704 L 87.36 32.496 A 18.029 18.029 0 0 1 85.203 33.478 A 22.989 22.989 0 0 1 83.304 34.104 A 16.124 16.124 0 0 1 80.921 34.58 Q 79.729 34.731 78.387 34.75 A 27.559 27.559 0 0 1 78 34.752 A 15.544 15.544 0 0 1 73.524 34.128 A 13.421 13.421 0 0 1 70.272 32.664 A 13.728 13.728 0 0 1 65.531 27.65 A 16.76 16.76 0 0 1 65.04 26.712 A 18.053 18.053 0 0 1 63.552 22.048 Q 63.168 19.934 63.168 17.52 Q 63.168 12.384 65.064 8.424 A 15.185 15.185 0 0 1 68.414 3.801 A 14.333 14.333 0 0 1 70.44 2.232 A 14.098 14.098 0 0 1 76.527 0.115 A 17.9 17.9 0 0 1 78.576 0 A 21.907 21.907 0 0 1 81.004 0.129 A 16.896 16.896 0 0 1 82.944 0.456 A 18.348 18.348 0 0 1 86.532 1.678 A 17.089 17.089 0 0 1 86.64 1.728 Z M 120.864 32.976 L 116.688 34.656 L 112.944 25.056 L 97.392 25.056 L 93.648 34.56 L 89.76 32.976 L 102.912 0.576 L 107.904 0.576 L 120.864 32.976 Z M 14.88 34.176 L 10.32 34.176 L 10.32 4.608 L 0 4.608 L 0 0.576 L 25.2 0.576 L 25.2 4.608 L 14.88 4.608 L 14.88 34.176 Z M 38.836 34.389 A 17.525 17.525 0 0 0 42.48 34.752 A 18.408 18.408 0 0 0 44.958 34.591 A 14.435 14.435 0 0 0 49.152 33.384 Q 52.08 32.016 54.144 29.64 A 15.667 15.667 0 0 0 54.78 28.859 A 16.673 16.673 0 0 0 57.288 24.096 A 19.451 19.451 0 0 0 57.709 22.69 A 21.334 21.334 0 0 0 58.368 17.328 A 23.143 23.143 0 0 0 58.33 15.995 A 19.891 19.891 0 0 0 57.288 10.608 Q 56.208 7.488 54.144 5.088 Q 52.08 2.688 49.128 1.344 A 14.364 14.364 0 0 0 46.3 0.402 A 17.482 17.482 0 0 0 42.48 0 A 18.888 18.888 0 0 0 39.491 0.228 A 14.237 14.237 0 0 0 33.984 2.28 Q 30.432 4.56 28.536 8.472 A 18.234 18.234 0 0 0 27.175 12.366 A 22.167 22.167 0 0 0 26.64 17.328 Q 26.64 20.928 27.72 24.096 A 18.9 18.9 0 0 0 27.931 24.683 A 16.489 16.489 0 0 0 30.84 29.64 Q 32.88 32.016 35.808 33.384 A 13.988 13.988 0 0 0 38.836 34.389 Z M 42.48 30.816 A 12.728 12.728 0 0 0 45.335 30.512 A 9.272 9.272 0 0 0 48.672 29.04 A 10.786 10.786 0 0 0 52.188 24.782 A 13.081 13.081 0 0 0 52.44 24.216 A 16.372 16.372 0 0 0 53.555 19.93 A 20.882 20.882 0 0 0 53.712 17.328 Q 53.712 14.736 52.944 12.336 A 14.273 14.273 0 0 0 50.957 8.34 A 13.497 13.497 0 0 0 50.736 8.04 Q 49.296 6.144 47.208 5.04 A 9.562 9.562 0 0 0 43.648 3.993 A 11.797 11.797 0 0 0 42.48 3.936 A 11.561 11.561 0 0 0 39.364 4.34 A 9.381 9.381 0 0 0 36.456 5.712 A 11.111 11.111 0 0 0 32.808 10.093 A 13.336 13.336 0 0 0 32.616 10.512 A 15.741 15.741 0 0 0 31.438 14.922 A 19.803 19.803 0 0 0 31.296 17.328 Q 31.296 19.92 32.04 22.344 A 14.102 14.102 0 0 0 34.047 26.446 A 13.403 13.403 0 0 0 34.224 26.688 Q 35.664 28.608 37.752 29.712 A 9.562 9.562 0 0 0 41.312 30.76 A 11.797 11.797 0 0 0 42.48 30.816 Z M 105.168 5.088 L 98.832 21.216 L 111.456 21.216 L 105.168 5.088 Z" vector-effect="non-scaling-stroke"/></g></svg>